<?xml version="1.0" encoding="UTF-8" standalone="no"?>
<!-- Created with Inkscape (http://www.inkscape.org/) -->

<svg
   xmlns:dc="http://purl.org/dc/elements/1.1/"
   xmlns:cc="http://creativecommons.org/ns#"
   xmlns:rdf="http://www.w3.org/1999/02/22-rdf-syntax-ns#"
   xmlns:svg="http://www.w3.org/2000/svg"
   xmlns="http://www.w3.org/2000/svg"
   xmlns:sodipodi="http://sodipodi.sourceforge.net/DTD/sodipodi-0.dtd"
   xmlns:inkscape="http://www.inkscape.org/namespaces/inkscape"
   width="100mm"
   height="65mm"
   viewBox="0 0 354.33071 230.31496"
   id="svg4262"
   version="1.1"
   inkscape:version="0.91 r13725"
   sodipodi:docname="Qkit_Logo.svg"
   inkscape:export-xdpi="300"
   inkscape:export-ydpi="300">
  <defs
     id="defs4264" />
  <sodipodi:namedview
     id="base"
     pagecolor="#ffffff"
     bordercolor="#666666"
     borderopacity="1.0"
     inkscape:pageopacity="0.0"
     inkscape:pageshadow="2"
     inkscape:zoom="1.7769055"
     inkscape:cx="176.53906"
     inkscape:cy="113.91896"
     inkscape:document-units="px"
     inkscape:current-layer="layer1"
     showgrid="false"
     inkscape:window-width="1280"
     inkscape:window-height="755"
     inkscape:window-x="0"
     inkscape:window-y="1"
     inkscape:window-maximized="1"
     fit-margin-top="0"
     fit-margin-left="0"
     fit-margin-right="0"
     fit-margin-bottom="0" />
  <metadata
     id="metadata4267">
    <rdf:RDF>
      <cc:Work
         rdf:about="">
        <dc:format>image/svg+xml</dc:format>
        <dc:type
           rdf:resource="http://purl.org/dc/dcmitype/StillImage" />
        <dc:title></dc:title>
      </cc:Work>
    </rdf:RDF>
  </metadata>
  <g
     inkscape:label="Layer 1"
     inkscape:groupmode="layer"
     id="layer1"
     transform="translate(-179.17578,-82.374506)">
    <g
       id="g4175"
       style="fill:#5b7674;fill-opacity:1"
       transform="translate(-210,-286)">
      <path
         id="rect4861"
         d="m 429.44922,376.85156 c -16.77209,0 -30.27344,10.06243 -30.27344,22.56055 l 0,170.71875 c 0,12.49812 13.50135,22.55859 30.27344,22.55859 l 272.5293,0 c 16.77209,0 30.27539,-10.06047 30.27539,-22.55859 l 0,-170.71875 c 0,-12.49812 -13.5033,-22.56055 -30.27539,-22.56055 l -272.5293,0 z m 185.25195,25.29102 99.1875,0 0,19.08594 0,0.5 -38.16601,0 0,71.94531 -22.68164,0 0,-71.94531 -38.33985,0 0,-19.58594 z m -145.84765,27.79297 c 3.9743,0 7.94943,0.52629 11.86523,1.63672 3.9743,1.05205 7.94758,2.63052 11.92187,4.79296 l 9.41016,-6.19531 3.39063,1.92969 c -1.8703,5.55226 -2.98162,10.28536 -3.44922,14.20117 -0.6429,6.01983 -0.99414,16.18853 -0.99414,30.39063 l 0,50.02929 c 0,18.41021 0.585,28.81442 1.7539,31.09375 1.1105,2.27938 4.55951,3.44727 10.28711,3.44727 l 4.08985,0 0,5.14453 -14.25977,-0.35156 -11.33789,-0.17578 c -2.8638,0 -10.17047,0.17669 -21.91797,0.52734 l 0,-5.14453 4.85156,0 c 5.4938,0 8.70768,-1.11084 9.70118,-3.21484 0.9936,-2.16248 1.51953,-12.7399 1.51953,-31.79297 l 0,-21.2168 c -7.1887,4.20803 -14.20106,8.53291 -21.09766,13.0332 -1.6364,0.35068 -3.21458,0.52793 -4.67578,0.76172 -1.4611,0.17532 -2.74731,0.23242 -3.97461,0.23242 -10.4032,0 -19.05272,-3.73959 -25.94922,-11.16211 -6.8966,-7.48098 -10.3457,-17.4163 -10.3457,-29.80664 0,-8.24074 1.28573,-15.19592 3.79883,-20.80664 2.5131,-5.61072 6.13699,-10.11214 10.87109,-13.50195 1.1689,-0.87665 6.72241,-4.03145 16.59961,-9.4668 5.2601,-2.92227 11.22021,-4.38476 17.94141,-4.38476 z m 145.70312,4.15039 21.74219,0 0,133.89648 -21.74219,0 0,-133.89648 z m -8.88281,0.64258 -53.00977,66.16015 53.00977,66.16016 -26.65039,-0.29297 -50.0293,-65.86719 50.0293,-65.86719 26.65039,-0.29296 z m -143.07422,2.98046 c -8.1239,0 -14.66901,2.98199 -19.69531,8.94336 -5.0262,5.9614 -7.53907,14.43423 -7.53907,25.42188 0,11.39676 2.68912,20.28183 7.94922,26.65234 5.3185,6.42898 11.74595,9.64258 19.34375,9.64258 3.9159,0 7.77327,-0.99318 11.57227,-2.92187 3.682,-1.87023 7.53928,-5.20151 11.45508,-9.93555 l 0,-17.1836 c -0.1753,-17.35817 -0.35019,-27.7612 -0.58399,-31.38476 -3.7405,-3.38981 -7.3058,-5.78664 -10.8125,-7.13086 -3.5067,-1.40268 -7.42295,-2.10352 -11.68945,-2.10352 z"
         style="clip-rule:evenodd;fill:#5b7674;fill-opacity:1;fill-rule:evenodd;stroke:none;stroke-width:1;stroke-miterlimit:4;stroke-dasharray:none;stroke-opacity:1;image-rendering:optimizeQuality;shape-rendering:geometricPrecision;text-rendering:geometricPrecision"
         inkscape:connector-curvature="0" />
    </g>
  </g>
</svg>
